<svg fill="none" width="24px" height="24px" viewBox="0 0 24 24" xmlns="http://www.w3.org/2000/svg">
  <path d="M3 12C3 4.5885 4.5885 3 12 3C19.4115 3 21 4.5885 21 12C21 19.4115 19.4115 21 12 21C4.5885 21 3 19.4115 3 12Z" fill="#CFEFD9" stroke="#323232" stroke-width="1.8"/>
  <path d="M9.5 13.8L14.5 8.8C15.2 8.1 16.3 8.1 17 8.8C17.7 9.5 17.7 10.6 17 11.3L11.2 17.1C10.1 18.2 8.3 18.2 7.2 17.1C6.1 16 6.1 14.2 7.2 13.1L12.2 8.1" stroke="#323232" stroke-width="1.8" stroke-linecap="round" stroke-linejoin="round"/>
</svg>
